# xmcd
#
# Track frame offsets: 
#        182
#        10445
#        21257
#        32870
#        42407
#        52382
#        63107
#        74445
#        84270
#        93682
#        105295
#        116720
#        128657
#        139987
#        151082
#        162182
#        173512
#        181970
#        192557
#        203270
#
# Disc length: 2853 seconds
#
# Revision: 2
# Processed by: cddbd v1.5.2PL0 Copyright (c) Steve Scherf et al.
# Submitted via: ExactAudioCopy v1.1
#
DISCID=0e0b2314
DTITLE=Patsy Cline - The Legendary Patsy Cline
DYEAR=1988
DGENRE=Country
TTITLE0=Three Cigarettes In An Ashtray
TTITLE1=I Can See An Angel Walking
TTITLE2=I've Loved And Lost Again
TTITLE3=I'm Moving Along
TTITLE4=Turn The Cards Slowly
TTITLE5=Don't Ever Leave Me
TTITLE6=The Heart You Break May Be Your Own
TTITLE7=I'm Blue Again
TTITLE8=Love Me, Love Me, Honey Do
TTITLE9=Walking After Midnight
TTITLE10=In Care Of The Blues
TTITLE11=Today, Tomorrow, Forever
TTITLE12=Just Out Of Reach
TTITLE13=I Can't Forget
TTITLE14=A Stranger In My Arms
TTITLE15=Cry Not For Me
TTITLE16=Come On In
TTITLE17=Gotta Lot Of Rhythm
TTITLE18=Stop Look And Listen
TTITLE19=I Cried All The Way To The Altar
EXTD=
EXTT0=
EXTT1=
EXTT2=
EXTT3=
EXTT4=
EXTT5=
EXTT6=
EXTT7=
EXTT8=
EXTT9=
EXTT10=
EXTT11=
EXTT12=
EXTT13=
EXTT14=
EXTT15=
EXTT16=
EXTT17=
EXTT18=
EXTT19=
PLAYORDER=
